<mxfile host="Electron" modified="2023-04-17T07:59:07.956Z" agent="Mozilla/5.0 (Windows NT 10.0; Win64; x64) AppleWebKit/537.36 (KHTML, like Gecko) draw.io/21.1.2 Chrome/106.0.5249.199 Electron/21.4.3 Safari/537.36" etag="8zoDBQQ7CiV_gvyn2h6j" version="21.1.2" type="device" pages="3">
  <diagram name="Sequenz" id="B21jgjWOHXaZNQW184HR">
    <mxGraphModel dx="1036" dy="614" grid="1" gridSize="10" guides="1" tooltips="1" connect="1" arrows="1" fold="1" page="1" pageScale="1" pageWidth="1169" pageHeight="1654" math="0" shadow="0">
      <root>
        <mxCell id="0" />
        <mxCell id="pCA_wMGK8luPxstzmgIP-48" value="Hintergrund" style="" parent="0" />
        <mxCell id="pCA_wMGK8luPxstzmgIP-41" value="Game Loop" style="rounded=0;whiteSpace=wrap;html=1;fillStyle=hatch;fillColor=none;dashed=1;dashPattern=8 8;horizontal=0;spacingLeft=0;spacingTop=0;align=center;verticalAlign=top;" parent="pCA_wMGK8luPxstzmgIP-48" vertex="1">
          <mxGeometry x="40" y="380" width="790" height="260" as="geometry" />
        </mxCell>
        <mxCell id="pCA_wMGK8luPxstzmgIP-49" value="HSLU FS23 CSA&lt;br&gt;Name: Sequenzdiagramm&lt;br&gt;Projekt: Snake&lt;br&gt;Gruppe: G10&lt;br&gt;Datum: 27.03.2023&lt;br&gt;Autor: Marc Siegrist,&amp;nbsp;Gallo Joseph" style="rounded=0;whiteSpace=wrap;html=1;fillStyle=auto;fillColor=#0050ef;fontColor=#ffffff;strokeColor=#001DBC;align=left;verticalAlign=top;" parent="pCA_wMGK8luPxstzmgIP-48" vertex="1">
          <mxGeometry width="200" height="100" as="geometry" />
        </mxCell>
        <mxCell id="1" value="Diagram" parent="0" />
        <mxCell id="pCA_wMGK8luPxstzmgIP-2" value="Gamer" style="shape=umlActor;verticalLabelPosition=bottom;verticalAlign=top;html=1;" parent="1" vertex="1">
          <mxGeometry x="80" y="120" width="30" height="60" as="geometry" />
        </mxCell>
        <mxCell id="pCA_wMGK8luPxstzmgIP-4" value="" style="endArrow=none;dashed=1;html=1;rounded=0;targetPerimeterSpacing=11;startArrow=none;" parent="1" source="pCA_wMGK8luPxstzmgIP-10" edge="1">
          <mxGeometry width="50" height="50" relative="1" as="geometry">
            <mxPoint x="100" y="590" as="sourcePoint" />
            <mxPoint x="100" y="210" as="targetPoint" />
          </mxGeometry>
        </mxCell>
        <mxCell id="pCA_wMGK8luPxstzmgIP-6" value="App" style="rounded=0;whiteSpace=wrap;html=1;" parent="1" vertex="1">
          <mxGeometry x="360" y="120" width="120" height="60" as="geometry" />
        </mxCell>
        <mxCell id="pCA_wMGK8luPxstzmgIP-7" value="SnakeGame" style="rounded=0;whiteSpace=wrap;html=1;" parent="1" vertex="1">
          <mxGeometry x="720" y="120" width="120" height="60" as="geometry" />
        </mxCell>
        <mxCell id="pCA_wMGK8luPxstzmgIP-8" value="" style="endArrow=none;dashed=1;html=1;rounded=0;sourcePerimeterSpacing=50;targetPerimeterSpacing=11;" parent="1" edge="1">
          <mxGeometry width="50" height="50" relative="1" as="geometry">
            <mxPoint x="420" y="1000" as="sourcePoint" />
            <mxPoint x="420" y="200" as="targetPoint" />
          </mxGeometry>
        </mxCell>
        <mxCell id="pCA_wMGK8luPxstzmgIP-9" value="" style="endArrow=none;dashed=1;html=1;rounded=0;targetPerimeterSpacing=11;startArrow=none;" parent="1" source="pCA_wMGK8luPxstzmgIP-18" edge="1">
          <mxGeometry width="50" height="50" relative="1" as="geometry">
            <mxPoint x="780" y="1000" as="sourcePoint" />
            <mxPoint x="780" y="200" as="targetPoint" />
          </mxGeometry>
        </mxCell>
        <mxCell id="pCA_wMGK8luPxstzmgIP-11" value="" style="endArrow=none;dashed=1;html=1;rounded=0;sourcePerimeterSpacing=50;" parent="1" target="pCA_wMGK8luPxstzmgIP-10" edge="1">
          <mxGeometry width="50" height="50" relative="1" as="geometry">
            <mxPoint x="100" y="1003.7646484375" as="sourcePoint" />
            <mxPoint x="100" y="210" as="targetPoint" />
          </mxGeometry>
        </mxCell>
        <mxCell id="pCA_wMGK8luPxstzmgIP-10" value="" style="rounded=0;whiteSpace=wrap;html=1;" parent="1" vertex="1">
          <mxGeometry x="90" y="230" width="20" height="590" as="geometry" />
        </mxCell>
        <mxCell id="pCA_wMGK8luPxstzmgIP-12" value="Start Game" style="endArrow=classic;html=1;rounded=0;sourcePerimeterSpacing=50;targetPerimeterSpacing=11;exitX=1;exitY=0;exitDx=0;exitDy=0;entryX=0;entryY=0;entryDx=0;entryDy=0;" parent="1" source="pCA_wMGK8luPxstzmgIP-10" target="pCA_wMGK8luPxstzmgIP-15" edge="1">
          <mxGeometry width="50" height="50" relative="1" as="geometry">
            <mxPoint x="300" y="380" as="sourcePoint" />
            <mxPoint x="390" y="230" as="targetPoint" />
          </mxGeometry>
        </mxCell>
        <mxCell id="pCA_wMGK8luPxstzmgIP-15" value="" style="rounded=0;whiteSpace=wrap;html=1;" parent="1" vertex="1">
          <mxGeometry x="410" y="230" width="21.38" height="570" as="geometry" />
        </mxCell>
        <mxCell id="pCA_wMGK8luPxstzmgIP-16" value="new SnakeGame()" style="endArrow=classic;html=1;rounded=0;sourcePerimeterSpacing=50;targetPerimeterSpacing=11;entryX=0;entryY=0;entryDx=0;entryDy=0;" parent="1" target="pCA_wMGK8luPxstzmgIP-18" edge="1">
          <mxGeometry x="-0.0018" width="50" height="50" relative="1" as="geometry">
            <mxPoint x="429" y="290" as="sourcePoint" />
            <mxPoint x="759" y="288" as="targetPoint" />
            <mxPoint as="offset" />
          </mxGeometry>
        </mxCell>
        <mxCell id="pCA_wMGK8luPxstzmgIP-19" value="" style="endArrow=none;dashed=1;html=1;rounded=0;startArrow=none;" parent="1" source="pCA_wMGK8luPxstzmgIP-30" target="pCA_wMGK8luPxstzmgIP-18" edge="1">
          <mxGeometry width="50" height="50" relative="1" as="geometry">
            <mxPoint x="780" y="1000" as="sourcePoint" />
            <mxPoint x="780" y="200" as="targetPoint" />
          </mxGeometry>
        </mxCell>
        <mxCell id="pCA_wMGK8luPxstzmgIP-18" value="" style="rounded=0;whiteSpace=wrap;html=1;" parent="1" vertex="1">
          <mxGeometry x="770" y="290" width="20" height="60" as="geometry" />
        </mxCell>
        <mxCell id="pCA_wMGK8luPxstzmgIP-21" value="SnakeGame instance" style="endArrow=classic;html=1;rounded=0;sourcePerimeterSpacing=50;targetPerimeterSpacing=11;exitX=0;exitY=1;exitDx=0;exitDy=0;entryX=0.973;entryY=0.211;entryDx=0;entryDy=0;entryPerimeter=0;" parent="1" source="pCA_wMGK8luPxstzmgIP-18" target="pCA_wMGK8luPxstzmgIP-15" edge="1">
          <mxGeometry width="50" height="50" relative="1" as="geometry">
            <mxPoint x="920" y="360" as="sourcePoint" />
            <mxPoint x="440" y="350" as="targetPoint" />
          </mxGeometry>
        </mxCell>
        <mxCell id="pCA_wMGK8luPxstzmgIP-25" value="Tick()" style="endArrow=classic;html=1;rounded=0;sourcePerimeterSpacing=50;targetPerimeterSpacing=11;exitX=1;exitY=0.75;exitDx=0;exitDy=0;entryX=0;entryY=0;entryDx=0;entryDy=0;" parent="1" target="pCA_wMGK8luPxstzmgIP-30" edge="1">
          <mxGeometry width="50" height="50" relative="1" as="geometry">
            <mxPoint x="429" y="440" as="sourcePoint" />
            <mxPoint x="769" y="440" as="targetPoint" />
          </mxGeometry>
        </mxCell>
        <mxCell id="pCA_wMGK8luPxstzmgIP-31" value="" style="endArrow=none;dashed=1;html=1;rounded=0;sourcePerimeterSpacing=50;" parent="1" target="pCA_wMGK8luPxstzmgIP-30" edge="1">
          <mxGeometry width="50" height="50" relative="1" as="geometry">
            <mxPoint x="780" y="1000" as="sourcePoint" />
            <mxPoint x="780" y="350" as="targetPoint" />
          </mxGeometry>
        </mxCell>
        <mxCell id="pCA_wMGK8luPxstzmgIP-30" value="" style="rounded=0;whiteSpace=wrap;html=1;" parent="1" vertex="1">
          <mxGeometry x="770" y="440" width="20" height="60" as="geometry" />
        </mxCell>
        <mxCell id="pCA_wMGK8luPxstzmgIP-35" value="Game State" style="endArrow=classic;html=1;rounded=0;sourcePerimeterSpacing=50;targetPerimeterSpacing=11;exitX=0;exitY=1;exitDx=0;exitDy=0;entryX=0.935;entryY=0.421;entryDx=0;entryDy=0;entryPerimeter=0;" parent="1" source="pCA_wMGK8luPxstzmgIP-30" edge="1">
          <mxGeometry width="50" height="50" relative="1" as="geometry">
            <mxPoint x="580" y="600" as="sourcePoint" />
            <mxPoint x="429.99029999999993" y="499.97" as="targetPoint" />
          </mxGeometry>
        </mxCell>
        <mxCell id="pCA_wMGK8luPxstzmgIP-37" value="Draw Game State" style="endArrow=classic;html=1;rounded=0;sourcePerimeterSpacing=50;targetPerimeterSpacing=11;entryX=1.12;entryY=0.525;entryDx=0;entryDy=0;entryPerimeter=0;exitX=-0.15;exitY=0.545;exitDx=0;exitDy=0;exitPerimeter=0;" parent="1" source="pCA_wMGK8luPxstzmgIP-15" target="pCA_wMGK8luPxstzmgIP-10" edge="1">
          <mxGeometry x="0.0014" width="50" height="50" relative="1" as="geometry">
            <mxPoint x="390" y="540" as="sourcePoint" />
            <mxPoint x="340" y="590" as="targetPoint" />
            <mxPoint as="offset" />
          </mxGeometry>
        </mxCell>
        <mxCell id="pCA_wMGK8luPxstzmgIP-38" value="Joystick Input" style="endArrow=classic;html=1;rounded=0;sourcePerimeterSpacing=50;targetPerimeterSpacing=11;entryX=-0.15;entryY=0.649;entryDx=0;entryDy=0;entryPerimeter=0;" parent="1" target="pCA_wMGK8luPxstzmgIP-15" edge="1">
          <mxGeometry width="50" height="50" relative="1" as="geometry">
            <mxPoint x="110" y="600" as="sourcePoint" />
            <mxPoint x="400" y="600" as="targetPoint" />
          </mxGeometry>
        </mxCell>
        <mxCell id="pCA_wMGK8luPxstzmgIP-42" value="Tick()" style="endArrow=classic;html=1;rounded=0;sourcePerimeterSpacing=50;targetPerimeterSpacing=11;exitX=1;exitY=0.75;exitDx=0;exitDy=0;entryX=0;entryY=0;entryDx=0;entryDy=0;" parent="1" target="pCA_wMGK8luPxstzmgIP-43" edge="1">
          <mxGeometry width="50" height="50" relative="1" as="geometry">
            <mxPoint x="429" y="680" as="sourcePoint" />
            <mxPoint x="769" y="680" as="targetPoint" />
          </mxGeometry>
        </mxCell>
        <mxCell id="pCA_wMGK8luPxstzmgIP-43" value="" style="rounded=0;whiteSpace=wrap;html=1;" parent="1" vertex="1">
          <mxGeometry x="770" y="680" width="20" height="60" as="geometry" />
        </mxCell>
        <mxCell id="pCA_wMGK8luPxstzmgIP-44" value="Game State (Game Over)" style="endArrow=classic;html=1;rounded=0;sourcePerimeterSpacing=50;targetPerimeterSpacing=11;exitX=0;exitY=1;exitDx=0;exitDy=0;entryX=1.197;entryY=0.896;entryDx=0;entryDy=0;entryPerimeter=0;" parent="1" source="pCA_wMGK8luPxstzmgIP-43" target="pCA_wMGK8luPxstzmgIP-15" edge="1">
          <mxGeometry width="50" height="50" relative="1" as="geometry">
            <mxPoint x="580" y="840" as="sourcePoint" />
            <mxPoint x="460" y="740" as="targetPoint" />
          </mxGeometry>
        </mxCell>
        <mxCell id="pCA_wMGK8luPxstzmgIP-46" value="End Game Screen" style="endArrow=classic;html=1;rounded=0;sourcePerimeterSpacing=50;targetPerimeterSpacing=11;exitX=0;exitY=1;exitDx=0;exitDy=0;entryX=1;entryY=0.966;entryDx=0;entryDy=0;entryPerimeter=0;" parent="1" source="pCA_wMGK8luPxstzmgIP-15" target="pCA_wMGK8luPxstzmgIP-10" edge="1">
          <mxGeometry width="50" height="50" relative="1" as="geometry">
            <mxPoint x="220" y="840" as="sourcePoint" />
            <mxPoint x="120" y="800" as="targetPoint" />
          </mxGeometry>
        </mxCell>
      </root>
    </mxGraphModel>
  </diagram>
  <diagram name="Sequenz Kompakt" id="eBAL39gOa7BkdOEDHhXS">
    <mxGraphModel dx="1036" dy="614" grid="1" gridSize="10" guides="1" tooltips="1" connect="1" arrows="1" fold="1" page="1" pageScale="1" pageWidth="1169" pageHeight="827" math="0" shadow="0">
      <root>
        <mxCell id="wgvP8SeVkhier-gyu7ik-0" />
        <mxCell id="wgvP8SeVkhier-gyu7ik-1" value="Hintergrund" style="" parent="wgvP8SeVkhier-gyu7ik-0" />
        <mxCell id="wgvP8SeVkhier-gyu7ik-2" value="Game Loop" style="rounded=0;whiteSpace=wrap;html=1;fillStyle=hatch;fillColor=#BDD0FC;dashed=1;dashPattern=8 8;horizontal=0;spacingLeft=0;spacingTop=0;align=center;verticalAlign=top;strokeColor=#6c8ebf;labelBackgroundColor=default;" parent="wgvP8SeVkhier-gyu7ik-1" vertex="1">
          <mxGeometry y="180" width="490" height="140" as="geometry" />
        </mxCell>
        <mxCell id="TJPE7He3mfhfnsK9eFvk-0" value="" style="html=1;verticalLabelPosition=bottom;align=center;labelBackgroundColor=#ffffff;verticalAlign=top;strokeWidth=2;strokeColor=#1A1A1A;shadow=0;dashed=0;shape=mxgraph.ios7.icons.reload;rotation=-90;" parent="wgvP8SeVkhier-gyu7ik-1" vertex="1">
          <mxGeometry x="10" y="200" width="8.89" height="10" as="geometry" />
        </mxCell>
        <mxCell id="wgvP8SeVkhier-gyu7ik-4" value="Diagram" parent="wgvP8SeVkhier-gyu7ik-0" />
        <mxCell id="wgvP8SeVkhier-gyu7ik-5" value="Gamer" style="shape=umlActor;verticalLabelPosition=bottom;verticalAlign=top;html=1;" parent="wgvP8SeVkhier-gyu7ik-4" vertex="1">
          <mxGeometry x="40" width="30" height="60" as="geometry" />
        </mxCell>
        <mxCell id="wgvP8SeVkhier-gyu7ik-6" value="" style="endArrow=none;dashed=1;html=1;rounded=0;targetPerimeterSpacing=11;startArrow=none;" parent="wgvP8SeVkhier-gyu7ik-4" edge="1">
          <mxGeometry width="50" height="50" relative="1" as="geometry">
            <mxPoint x="60" y="440" as="sourcePoint" />
            <mxPoint x="60" y="90" as="targetPoint" />
          </mxGeometry>
        </mxCell>
        <mxCell id="wgvP8SeVkhier-gyu7ik-7" value="App" style="rounded=0;whiteSpace=wrap;html=1;" parent="wgvP8SeVkhier-gyu7ik-4" vertex="1">
          <mxGeometry x="160" width="120" height="60" as="geometry" />
        </mxCell>
        <mxCell id="wgvP8SeVkhier-gyu7ik-8" value="SnakeGame" style="rounded=0;whiteSpace=wrap;html=1;" parent="wgvP8SeVkhier-gyu7ik-4" vertex="1">
          <mxGeometry x="360" width="120" height="60" as="geometry" />
        </mxCell>
        <mxCell id="wgvP8SeVkhier-gyu7ik-9" value="" style="endArrow=none;dashed=1;html=1;rounded=0;sourcePerimeterSpacing=50;targetPerimeterSpacing=11;" parent="wgvP8SeVkhier-gyu7ik-4" edge="1">
          <mxGeometry width="50" height="50" relative="1" as="geometry">
            <mxPoint x="220" y="440" as="sourcePoint" />
            <mxPoint x="220" y="80" as="targetPoint" />
          </mxGeometry>
        </mxCell>
        <mxCell id="wgvP8SeVkhier-gyu7ik-10" value="" style="endArrow=none;dashed=1;html=1;rounded=0;targetPerimeterSpacing=11;startArrow=none;" parent="wgvP8SeVkhier-gyu7ik-4" source="wgvP8SeVkhier-gyu7ik-17" edge="1">
          <mxGeometry width="50" height="50" relative="1" as="geometry">
            <mxPoint x="420" y="880" as="sourcePoint" />
            <mxPoint x="420" y="80" as="targetPoint" />
          </mxGeometry>
        </mxCell>
        <mxCell id="wgvP8SeVkhier-gyu7ik-12" value="" style="rounded=0;whiteSpace=wrap;html=1;" parent="wgvP8SeVkhier-gyu7ik-4" vertex="1">
          <mxGeometry x="50" y="110" width="20" height="310" as="geometry" />
        </mxCell>
        <mxCell id="wgvP8SeVkhier-gyu7ik-13" value="Start Game" style="endArrow=classic;html=1;rounded=0;sourcePerimeterSpacing=50;targetPerimeterSpacing=11;exitX=1;exitY=0;exitDx=0;exitDy=0;entryX=0;entryY=0;entryDx=0;entryDy=0;" parent="wgvP8SeVkhier-gyu7ik-4" source="wgvP8SeVkhier-gyu7ik-12" target="wgvP8SeVkhier-gyu7ik-14" edge="1">
          <mxGeometry width="50" height="50" relative="1" as="geometry">
            <mxPoint x="260" y="260" as="sourcePoint" />
            <mxPoint x="350" y="110" as="targetPoint" />
          </mxGeometry>
        </mxCell>
        <mxCell id="wgvP8SeVkhier-gyu7ik-14" value="" style="rounded=0;whiteSpace=wrap;html=1;" parent="wgvP8SeVkhier-gyu7ik-4" vertex="1">
          <mxGeometry x="210" y="110" width="21.38" height="290" as="geometry" />
        </mxCell>
        <mxCell id="wgvP8SeVkhier-gyu7ik-16" value="" style="endArrow=none;dashed=1;html=1;rounded=0;startArrow=none;" parent="wgvP8SeVkhier-gyu7ik-4" source="wgvP8SeVkhier-gyu7ik-21" target="wgvP8SeVkhier-gyu7ik-17" edge="1">
          <mxGeometry width="50" height="50" relative="1" as="geometry">
            <mxPoint x="420" y="829" as="sourcePoint" />
            <mxPoint x="420" y="29" as="targetPoint" />
          </mxGeometry>
        </mxCell>
        <mxCell id="wgvP8SeVkhier-gyu7ik-17" value="" style="rounded=0;whiteSpace=wrap;html=1;" parent="wgvP8SeVkhier-gyu7ik-4" vertex="1">
          <mxGeometry x="410" y="119" width="20" height="40" as="geometry" />
        </mxCell>
        <mxCell id="wgvP8SeVkhier-gyu7ik-18" value="SnakeGame instance" style="endArrow=classic;html=1;rounded=0;sourcePerimeterSpacing=50;targetPerimeterSpacing=11;exitX=0;exitY=1;exitDx=0;exitDy=0;entryX=0.961;entryY=0.168;entryDx=0;entryDy=0;entryPerimeter=0;" parent="wgvP8SeVkhier-gyu7ik-4" source="wgvP8SeVkhier-gyu7ik-17" target="wgvP8SeVkhier-gyu7ik-14" edge="1">
          <mxGeometry width="50" height="50" relative="1" as="geometry">
            <mxPoint x="880" y="189" as="sourcePoint" />
            <mxPoint x="240" y="159" as="targetPoint" />
          </mxGeometry>
        </mxCell>
        <mxCell id="wgvP8SeVkhier-gyu7ik-19" value="Tick(Input)" style="endArrow=classic;html=1;rounded=0;sourcePerimeterSpacing=50;targetPerimeterSpacing=11;entryX=0;entryY=0;entryDx=0;entryDy=0;exitX=1.064;exitY=0.31;exitDx=0;exitDy=0;exitPerimeter=0;" parent="wgvP8SeVkhier-gyu7ik-4" source="wgvP8SeVkhier-gyu7ik-14" target="wgvP8SeVkhier-gyu7ik-21" edge="1">
          <mxGeometry width="50" height="50" relative="1" as="geometry">
            <mxPoint x="240" y="200" as="sourcePoint" />
            <mxPoint x="729" y="200" as="targetPoint" />
          </mxGeometry>
        </mxCell>
        <mxCell id="wgvP8SeVkhier-gyu7ik-20" value="" style="endArrow=none;dashed=1;html=1;rounded=0;sourcePerimeterSpacing=50;" parent="wgvP8SeVkhier-gyu7ik-4" target="wgvP8SeVkhier-gyu7ik-21" edge="1">
          <mxGeometry width="50" height="50" relative="1" as="geometry">
            <mxPoint x="420" y="440" as="sourcePoint" />
            <mxPoint x="420" y="130" as="targetPoint" />
          </mxGeometry>
        </mxCell>
        <mxCell id="wgvP8SeVkhier-gyu7ik-21" value="" style="rounded=0;whiteSpace=wrap;html=1;" parent="wgvP8SeVkhier-gyu7ik-4" vertex="1">
          <mxGeometry x="410" y="200" width="20" height="40" as="geometry" />
        </mxCell>
        <mxCell id="wgvP8SeVkhier-gyu7ik-22" value="Game State" style="endArrow=classic;html=1;rounded=0;sourcePerimeterSpacing=50;targetPerimeterSpacing=11;exitX=0;exitY=1;exitDx=0;exitDy=0;entryX=1.039;entryY=0.449;entryDx=0;entryDy=0;entryPerimeter=0;" parent="wgvP8SeVkhier-gyu7ik-4" source="wgvP8SeVkhier-gyu7ik-21" target="wgvP8SeVkhier-gyu7ik-14" edge="1">
          <mxGeometry x="0.0395" width="50" height="50" relative="1" as="geometry">
            <mxPoint x="540" y="360" as="sourcePoint" />
            <mxPoint x="240" y="240" as="targetPoint" />
            <mxPoint as="offset" />
          </mxGeometry>
        </mxCell>
        <mxCell id="wgvP8SeVkhier-gyu7ik-23" value="Draw Game State" style="endArrow=classic;html=1;rounded=0;sourcePerimeterSpacing=50;targetPerimeterSpacing=11;entryX=1.12;entryY=0.525;entryDx=0;entryDy=0;entryPerimeter=0;exitX=-0.115;exitY=0.52;exitDx=0;exitDy=0;exitPerimeter=0;" parent="wgvP8SeVkhier-gyu7ik-4" source="wgvP8SeVkhier-gyu7ik-14" edge="1">
          <mxGeometry x="0.0014" width="50" height="50" relative="1" as="geometry">
            <mxPoint x="206.7929999999999" y="260.9000000000001" as="sourcePoint" />
            <mxPoint x="72.40000000000009" y="260" as="targetPoint" />
            <mxPoint as="offset" />
          </mxGeometry>
        </mxCell>
        <mxCell id="wgvP8SeVkhier-gyu7ik-24" value="Joystick Input" style="endArrow=classic;html=1;rounded=0;sourcePerimeterSpacing=50;targetPerimeterSpacing=11;entryX=-0.15;entryY=0.649;entryDx=0;entryDy=0;entryPerimeter=0;" parent="wgvP8SeVkhier-gyu7ik-4" edge="1">
          <mxGeometry width="50" height="50" relative="1" as="geometry">
            <mxPoint x="73.21" y="300.07" as="sourcePoint" />
            <mxPoint x="210.0029999999999" y="300.00000000000006" as="targetPoint" />
          </mxGeometry>
        </mxCell>
        <mxCell id="wgvP8SeVkhier-gyu7ik-25" value="Tick(Input)" style="endArrow=classic;html=1;rounded=0;sourcePerimeterSpacing=50;targetPerimeterSpacing=11;entryX=0;entryY=0;entryDx=0;entryDy=0;exitX=1.045;exitY=0.794;exitDx=0;exitDy=0;exitPerimeter=0;" parent="wgvP8SeVkhier-gyu7ik-4" source="wgvP8SeVkhier-gyu7ik-14" target="wgvP8SeVkhier-gyu7ik-26" edge="1">
          <mxGeometry width="50" height="50" relative="1" as="geometry">
            <mxPoint x="240" y="340" as="sourcePoint" />
            <mxPoint x="729" y="340" as="targetPoint" />
          </mxGeometry>
        </mxCell>
        <mxCell id="wgvP8SeVkhier-gyu7ik-26" value="" style="rounded=0;whiteSpace=wrap;html=1;" parent="wgvP8SeVkhier-gyu7ik-4" vertex="1">
          <mxGeometry x="410" y="340" width="20" height="40" as="geometry" />
        </mxCell>
        <mxCell id="wgvP8SeVkhier-gyu7ik-27" value="Game State (Game Over)" style="endArrow=classic;html=1;rounded=0;sourcePerimeterSpacing=50;targetPerimeterSpacing=11;exitX=0;exitY=1;exitDx=0;exitDy=0;entryX=0.995;entryY=0.931;entryDx=0;entryDy=0;entryPerimeter=0;" parent="wgvP8SeVkhier-gyu7ik-4" source="wgvP8SeVkhier-gyu7ik-26" target="wgvP8SeVkhier-gyu7ik-14" edge="1">
          <mxGeometry width="50" height="50" relative="1" as="geometry">
            <mxPoint x="540" y="500" as="sourcePoint" />
            <mxPoint x="236" y="380" as="targetPoint" />
          </mxGeometry>
        </mxCell>
        <mxCell id="wgvP8SeVkhier-gyu7ik-28" value="End Game Screen" style="endArrow=classic;html=1;rounded=0;sourcePerimeterSpacing=50;targetPerimeterSpacing=11;exitX=0;exitY=1;exitDx=0;exitDy=0;entryX=1;entryY=0.966;entryDx=0;entryDy=0;entryPerimeter=0;" parent="wgvP8SeVkhier-gyu7ik-4" edge="1">
          <mxGeometry width="50" height="50" relative="1" as="geometry">
            <mxPoint x="210" y="400.0599999999991" as="sourcePoint" />
            <mxPoint x="70" y="400.00000000000006" as="targetPoint" />
          </mxGeometry>
        </mxCell>
        <mxCell id="TJPE7He3mfhfnsK9eFvk-1" value="new SnakeGame(width, height)" style="endArrow=classic;html=1;rounded=0;sourcePerimeterSpacing=50;targetPerimeterSpacing=11;entryX=0;entryY=0;entryDx=0;entryDy=0;exitX=1.064;exitY=0.031;exitDx=0;exitDy=0;exitPerimeter=0;" parent="wgvP8SeVkhier-gyu7ik-4" source="wgvP8SeVkhier-gyu7ik-14" target="wgvP8SeVkhier-gyu7ik-17" edge="1">
          <mxGeometry x="-0.0018" width="50" height="50" relative="1" as="geometry">
            <mxPoint x="240" y="119" as="sourcePoint" />
            <mxPoint x="719" y="117" as="targetPoint" />
            <mxPoint as="offset" />
          </mxGeometry>
        </mxCell>
      </root>
    </mxGraphModel>
  </diagram>
  <diagram id="ehel4DhyxMhKLgHNmi-s" name="UML">
    <mxGraphModel dx="1050" dy="629" grid="1" gridSize="10" guides="1" tooltips="1" connect="1" arrows="1" fold="1" page="1" pageScale="1" pageWidth="1169" pageHeight="1654" math="0" shadow="0">
      <root>
        <mxCell id="0" />
        <mxCell id="1" parent="0" />
        <mxCell id="SYC3Acl7F9Nns0mdv4js-1" value="SnakeGame" style="swimlane;fontStyle=1;align=center;verticalAlign=top;childLayout=stackLayout;horizontal=1;startSize=26;horizontalStack=0;resizeParent=1;resizeParentMax=0;resizeLast=0;collapsible=1;marginBottom=0;fillStyle=auto;fillColor=default;" parent="1" vertex="1">
          <mxGeometry x="320" y="120" width="240" height="112" as="geometry" />
        </mxCell>
        <mxCell id="SYC3Acl7F9Nns0mdv4js-2" value="+ State: GameState" style="text;strokeColor=none;fillColor=none;align=left;verticalAlign=top;spacingLeft=4;spacingRight=4;overflow=hidden;rotatable=0;points=[[0,0.5],[1,0.5]];portConstraint=eastwest;" parent="SYC3Acl7F9Nns0mdv4js-1" vertex="1">
          <mxGeometry y="26" width="240" height="26" as="geometry" />
        </mxCell>
        <mxCell id="SYC3Acl7F9Nns0mdv4js-3" value="" style="line;strokeWidth=1;fillColor=none;align=left;verticalAlign=middle;spacingTop=-1;spacingLeft=3;spacingRight=3;rotatable=0;labelPosition=right;points=[];portConstraint=eastwest;strokeColor=inherit;fillStyle=auto;" parent="SYC3Acl7F9Nns0mdv4js-1" vertex="1">
          <mxGeometry y="52" width="240" height="8" as="geometry" />
        </mxCell>
        <mxCell id="H2rtNyH02k4fSKuJMjE0-1" value="+ SnakeGame(width: int, length: int)" style="text;strokeColor=none;fillColor=none;align=left;verticalAlign=top;spacingLeft=4;spacingRight=4;overflow=hidden;rotatable=0;points=[[0,0.5],[1,0.5]];portConstraint=eastwest;whiteSpace=wrap;html=1;" parent="SYC3Acl7F9Nns0mdv4js-1" vertex="1">
          <mxGeometry y="60" width="240" height="26" as="geometry" />
        </mxCell>
        <mxCell id="SYC3Acl7F9Nns0mdv4js-4" value="+ Tick(input: Keys): GameSate" style="text;strokeColor=none;fillColor=none;align=left;verticalAlign=top;spacingLeft=4;spacingRight=4;overflow=hidden;rotatable=0;points=[[0,0.5],[1,0.5]];portConstraint=eastwest;" parent="SYC3Acl7F9Nns0mdv4js-1" vertex="1">
          <mxGeometry y="86" width="240" height="26" as="geometry" />
        </mxCell>
        <mxCell id="HoRKHKSvosGfV3KxaiAj-6" value="GameState" style="swimlane;fontStyle=1;align=center;verticalAlign=top;childLayout=stackLayout;horizontal=1;startSize=26;horizontalStack=0;resizeParent=1;resizeParentMax=0;resizeLast=0;collapsible=1;marginBottom=0;whiteSpace=wrap;html=1;" parent="1" vertex="1">
          <mxGeometry x="640" y="120" width="240" height="138" as="geometry" />
        </mxCell>
        <mxCell id="HoRKHKSvosGfV3KxaiAj-7" value="+ Score: int" style="text;strokeColor=none;fillColor=none;align=left;verticalAlign=top;spacingLeft=4;spacingRight=4;overflow=hidden;rotatable=0;points=[[0,0.5],[1,0.5]];portConstraint=eastwest;whiteSpace=wrap;html=1;" parent="HoRKHKSvosGfV3KxaiAj-6" vertex="1">
          <mxGeometry y="26" width="240" height="26" as="geometry" />
        </mxCell>
        <mxCell id="HoRKHKSvosGfV3KxaiAj-10" value="+ GameOver: bool" style="text;strokeColor=none;fillColor=none;align=left;verticalAlign=top;spacingLeft=4;spacingRight=4;overflow=hidden;rotatable=0;points=[[0,0.5],[1,0.5]];portConstraint=eastwest;whiteSpace=wrap;html=1;" parent="HoRKHKSvosGfV3KxaiAj-6" vertex="1">
          <mxGeometry y="52" width="240" height="26" as="geometry" />
        </mxCell>
        <mxCell id="HoRKHKSvosGfV3KxaiAj-12" value="+ Playfield: GameTile[,]" style="text;strokeColor=none;fillColor=none;align=left;verticalAlign=top;spacingLeft=4;spacingRight=4;overflow=hidden;rotatable=0;points=[[0,0.5],[1,0.5]];portConstraint=eastwest;whiteSpace=wrap;html=1;" parent="HoRKHKSvosGfV3KxaiAj-6" vertex="1">
          <mxGeometry y="78" width="240" height="26" as="geometry" />
        </mxCell>
        <mxCell id="HoRKHKSvosGfV3KxaiAj-8" value="" style="line;strokeWidth=1;fillColor=none;align=left;verticalAlign=middle;spacingTop=-1;spacingLeft=3;spacingRight=3;rotatable=0;labelPosition=right;points=[];portConstraint=eastwest;strokeColor=inherit;" parent="HoRKHKSvosGfV3KxaiAj-6" vertex="1">
          <mxGeometry y="104" width="240" height="8" as="geometry" />
        </mxCell>
        <mxCell id="HoRKHKSvosGfV3KxaiAj-9" value="+ GameState()" style="text;strokeColor=none;fillColor=none;align=left;verticalAlign=top;spacingLeft=4;spacingRight=4;overflow=hidden;rotatable=0;points=[[0,0.5],[1,0.5]];portConstraint=eastwest;whiteSpace=wrap;html=1;" parent="HoRKHKSvosGfV3KxaiAj-6" vertex="1">
          <mxGeometry y="112" width="240" height="26" as="geometry" />
        </mxCell>
        <mxCell id="QDUqcCtXKPpY2WNtxUov-1" value="HSLU FS23 CSA&lt;br&gt;Name: Klassendiagramm&lt;br&gt;Projekt: Snake&lt;br&gt;Gruppe: G10&lt;br&gt;Datum: 03.04.2023&lt;br&gt;Autor: Marc Siegrist,&amp;nbsp;Gallo Joseph" style="rounded=0;whiteSpace=wrap;html=1;fillStyle=auto;fillColor=#0050ef;fontColor=#ffffff;strokeColor=#001DBC;align=left;verticalAlign=top;" parent="1" vertex="1">
          <mxGeometry width="200" height="100" as="geometry" />
        </mxCell>
        <mxCell id="Wh4j8rtuOhoYXUTHdPLv-1" value="GameTile" style="swimlane;fontStyle=1;align=center;verticalAlign=top;childLayout=stackLayout;horizontal=1;startSize=26;horizontalStack=0;resizeParent=1;resizeParentMax=0;resizeLast=0;collapsible=1;marginBottom=0;whiteSpace=wrap;html=1;" vertex="1" parent="1">
          <mxGeometry x="640" y="360" width="160" height="104" as="geometry" />
        </mxCell>
        <mxCell id="Wh4j8rtuOhoYXUTHdPLv-9" value="empty" style="text;strokeColor=none;fillColor=none;align=left;verticalAlign=top;spacingLeft=4;spacingRight=4;overflow=hidden;rotatable=0;points=[[0,0.5],[1,0.5]];portConstraint=eastwest;whiteSpace=wrap;html=1;" vertex="1" parent="Wh4j8rtuOhoYXUTHdPLv-1">
          <mxGeometry y="26" width="160" height="26" as="geometry" />
        </mxCell>
        <mxCell id="Wh4j8rtuOhoYXUTHdPLv-10" value="snake" style="text;strokeColor=none;fillColor=none;align=left;verticalAlign=top;spacingLeft=4;spacingRight=4;overflow=hidden;rotatable=0;points=[[0,0.5],[1,0.5]];portConstraint=eastwest;whiteSpace=wrap;html=1;" vertex="1" parent="Wh4j8rtuOhoYXUTHdPLv-1">
          <mxGeometry y="52" width="160" height="26" as="geometry" />
        </mxCell>
        <mxCell id="Wh4j8rtuOhoYXUTHdPLv-2" value="fruit" style="text;strokeColor=none;fillColor=none;align=left;verticalAlign=top;spacingLeft=4;spacingRight=4;overflow=hidden;rotatable=0;points=[[0,0.5],[1,0.5]];portConstraint=eastwest;whiteSpace=wrap;html=1;" vertex="1" parent="Wh4j8rtuOhoYXUTHdPLv-1">
          <mxGeometry y="78" width="160" height="26" as="geometry" />
        </mxCell>
      </root>
    </mxGraphModel>
  </diagram>
</mxfile>
